<svg id="greeting-balloon" xmlns="http://www.w3.org/2000/svg" width="150" height="56" viewBox="0 0 150 56">
  <defs>
    <style>
      .cls-1 {
        fill: none;
        stroke: #fff;
        stroke-width: 2px;
      }

      .cls-1, .cls-2 {
        fill-rule: evenodd;
      }

      .cls-2 {
        fill: #fff;
      }
    </style>
  </defs>
  <path id="長方形_4" data-name="長方形 4" class="cls-1" d="M343,1249H285.067l-9.233,15.99L266.6,1249H211a8,8,0,0,1-8-8v-22a8,8,0,0,1,8-8H343a8,8,0,0,1,8,8v22A8,8,0,0,1,343,1249Z" transform="translate(-202 -1210)"/>
  <path id="院長からの一言_のコピー" data-name="院長からの一言 のコピー" class="cls-2" d="M234.357,1226.48h0.976v-2.89h-3.758v-1.4h-2.132v1.4h-3.586v2.89h0.882v1.46h7.618v-1.46Zm-6.782-1.37h6.047v1.28h-6.047v-1.28Zm-2.132-2.38h-4.43v13.74H222.8v-3.65l0.273,1.12a4.073,4.073,0,0,0,1.262-.14,1.592,1.592,0,0,0,.734-0.5,2.32,2.32,0,0,0,.461-0.93,5.169,5.169,0,0,0,.153-1.34,7.228,7.228,0,0,0-1.1-3.7q0.2-.495.68-2.1c0.318-1.07.516-1.77,0.594-2.11Zm-2.641,1.6h0.9a15.953,15.953,0,0,1-.656,2.84,0.675,0.675,0,0,0-.055.26,0.6,0.6,0,0,0,.086.3,5.863,5.863,0,0,1,.852,3.09,3.269,3.269,0,0,1-.1.92,0.55,0.55,0,0,1-.25.39,2.083,2.083,0,0,1-.539.05H222.8v-7.85Zm7.711,6.49v3.69a1.713,1.713,0,0,0,.3,1.05,1.4,1.4,0,0,0,.734.55,6.322,6.322,0,0,0,1.621.14,3.275,3.275,0,0,0,2.043-.44,1.642,1.642,0,0,0,.488-1.28v-2.08l-1.742-.26c0,0.56-.013,1.03-0.039,1.4a2.516,2.516,0,0,1-.094.67,0.487,0.487,0,0,1-.136.17,0.934,0.934,0,0,1-.489.07,1.245,1.245,0,0,1-.539-0.08,0.305,0.305,0,0,1-.132-0.27v-3.33h2.914v-1.55H226.13v1.55h1.7a4.539,4.539,0,0,1-1.086,2.54,4.837,4.837,0,0,1-2.468,1.51l0.781,1.55a7.106,7.106,0,0,0,3.437-2.12,6.228,6.228,0,0,0,1.313-3.48h0.7Zm14.68,2.72c-0.615.11-2.133,0.26-4.555,0.47l0.008-3.03h2.679a9.637,9.637,0,0,0,3,3.45,11.512,11.512,0,0,0,4.25,1.91l1.11-1.84a18.057,18.057,0,0,1-2.836-.99,15.651,15.651,0,0,0,2.117-1.2l-1.172-1.33h1.375v-1.65H240.614v-0.88h9.227v-1.21h-9.227v-0.88h9.313v-1.22h-9.313v-0.86h9.852v-1.65H238.372v6.7h-1.726v1.65h1.726v3.21c-0.692.05-1.232,0.08-1.617,0.11l0.352,1.95c4.5-.37,7.2-0.67,8.086-0.88v-1.83Zm1.859-1.18a8.975,8.975,0,0,1-1.4-1.38h3.734a22.783,22.783,0,0,1-2.336,1.38h0Zm11.211-9.89h-2.289v3.01h-3.11v1.95h2.829a15.284,15.284,0,0,1-1.414,4.8,16.372,16.372,0,0,1-2.016,3.09l1.695,1.26a16.294,16.294,0,0,0,4.11-9.15h1.953a1,1,0,0,1,.593.16,0.9,0.9,0,0,1,.336.48,4.138,4.138,0,0,1,.1,1.12,16.123,16.123,0,0,1-.121,2.1,8.562,8.562,0,0,1-.363,1.63,2.917,2.917,0,0,1-.465.95,0.723,0.723,0,0,1-.528.23,4.032,4.032,0,0,1-.91-0.25,7.333,7.333,0,0,1-1.316-.57l-0.719,1.89a7.068,7.068,0,0,0,3.2,1.16,2.819,2.819,0,0,0,2.727-2.13,16.117,16.117,0,0,0,.8-5.59,3.187,3.187,0,0,0-.82-2.26,2.825,2.825,0,0,0-2.156-.87h-2.164c0.026-.47.039-0.86,0.039-1.19v-1.82Zm8.351,4.52a16.528,16.528,0,0,0-2.406-3.5l-1.789,1.12a11.591,11.591,0,0,1,1.121,1.54,16.5,16.5,0,0,1,1.114,2,25.485,25.485,0,0,1,1.093,3.23l2.242-.58A13.793,13.793,0,0,0,266.614,1226.99Zm6.25-4.44-0.6,1.87q1.68,0.15,4.187.63a20.12,20.12,0,0,1,4.133,1.16l1.024-1.98a44.227,44.227,0,0,0-8.743-1.68h0Zm6.18,13.25a5.686,5.686,0,0,0,2.766-1.54,3.626,3.626,0,0,0,.9-2.48,3.484,3.484,0,0,0-1.379-2.98,6.248,6.248,0,0,0-3.824-1.04,10.224,10.224,0,0,0-2.644.4,9.086,9.086,0,0,0-2.411,1.01,16.949,16.949,0,0,0,.688-4.12l-2.3-.14a18.591,18.591,0,0,1-1.328,6.63l1.711,1.01a7.758,7.758,0,0,1,2.813-2.13,8.219,8.219,0,0,1,3.5-.8,3.465,3.465,0,0,1,2.085.55,1.887,1.887,0,0,1,.758,1.61c0,0.95-.709,1.64-2.129,2.06a23.2,23.2,0,0,1-6.207.63l0.321,1.98A32.749,32.749,0,0,0,279.044,1235.8Zm18.574-1.56a5.827,5.827,0,0,0,2.051-4.73,5.271,5.271,0,0,0-2.035-4.37,8.14,8.14,0,0,0-5.2-1.6h-0.321a8.183,8.183,0,0,0-5.488,2.24,6.43,6.43,0,0,0-2.176,4.78v0.2a5.579,5.579,0,0,0,.9,3.13,2.7,2.7,0,0,0,2.351,1.37q2.235,0,3.707-2.71a16.116,16.116,0,0,0,1.637-7.09,4.955,4.955,0,0,1,3.117,1.28,3.83,3.83,0,0,1,1.125,2.89,3.678,3.678,0,0,1-1.562,3.24,10.173,10.173,0,0,1-4.664,1.43l0.578,1.96A10.488,10.488,0,0,0,297.618,1234.24Zm-7.832-3.3c-0.6,1.42-1.265,2.14-2,2.14a0.967,0.967,0,0,1-.851-0.75,4.332,4.332,0,0,1-.305-1.64,4.731,4.731,0,0,1,1.231-3.16,5.518,5.518,0,0,1,2.988-1.84A15.8,15.8,0,0,1,289.786,1230.94Zm25.336-3.62h-14.14v2.08h14.14v-2.08Zm14.836-4.63H318.13v1.59h11.828v-1.59Zm1.422,2.29-14.672.02v1.68l14.672-.02v-1.68Zm-1.492,2.39H318.161v1.43h11.727v-1.43Zm0,2.17H318.161v1.43h11.727v-1.43Zm-1.711,6.82h2.211v-4.63h-12.7v4.63h2.14v-0.52h8.352v0.52Zm-8.352-3.24h8.352v1.35h-8.352v-1.35Z" transform="translate(-202 -1210)"/>
</svg>
