<svg xmlns="http://www.w3.org/2000/svg" viewBox="0 0 64 64"><defs><style>.cls-1{fill:#7dbeee;}</style></defs><g id="レイヤー_2" data-name="レイヤー 2"><g id="レイヤー_1-2" data-name="レイヤー 1"><path class="cls-1" d="M32,0A32,32,0,1,0,64,32,32,32,0,0,0,32,0ZM52.45,43l-1.92,8.57a1.93,1.93,0,0,1-1.87,1.53C28.15,53.1,11.5,36,11.5,14.85A2,2,0,0,1,13,12.92l8.33-2a1.92,1.92,0,0,1,2.2,1.14l3.84,9.24a2,2,0,0,1-.55,2.3L22,27.72A30.12,30.12,0,0,0,36.15,42.33l4-5a1.89,1.89,0,0,1,2.24-.57l9,4A2,2,0,0,1,52.45,43Z"/></g></g></svg>