<svg xmlns="http://www.w3.org/2000/svg" viewBox="0 0 133 107"><defs><style>.cls-1{fill:#4ba5e8;}.cls-2,.cls-3,.cls-4{fill:none;stroke:#4ba5e8;stroke-miterlimit:10;stroke-width:4px;}.cls-3{font-size:18.03px;}.cls-3,.cls-4{font-family:KozGoPr6N-Regular-90ms-RKSJ-H, Kozuka Gothic Pr6N;}.cls-4{font-size:16.71px;}</style></defs><g id="レイヤー_2" data-name="レイヤー 2"><g id="レイヤー_1-2" data-name="レイヤー 1"><path class="cls-1" d="M109.58,12A19.44,19.44,0,0,1,129,31.42V83.58A19.44,19.44,0,0,1,109.58,103H23.42A19.44,19.44,0,0,1,4,83.58V31.42A19.44,19.44,0,0,1,23.42,12h86.16m0-4H23.42A23.49,23.49,0,0,0,0,31.42V83.58A23.49,23.49,0,0,0,23.42,107h86.16A23.49,23.49,0,0,0,133,83.58V31.42A23.49,23.49,0,0,0,109.58,8Z"/><line class="cls-2" x1="31.5" x2="31.5" y2="27.5"/><line class="cls-2" x1="64.5" x2="64.5" y2="28"/><line class="cls-2" x1="97.5" x2="97.5" y2="28"/><polyline class="cls-2" points="26.5 52.5 34.5 61.5 50.5 44.5"/><polyline class="cls-2" points="80.5 50.5 88.5 59.5 104.5 42.5"/><text class="cls-3" transform="translate(21.72 90.23) scale(1.04 1)">SAT</text><text class="cls-4" transform="translate(77 89.07) scale(0.99 1)">SUN</text></g></g></svg>