<svg xmlns="http://www.w3.org/2000/svg" viewBox="0 0 118.09 116.62"><defs><style>.cls-1{fill:none;}.cls-1,.cls-4{stroke:#4ba5e8;stroke-miterlimit:10;stroke-width:4px;}.cls-2,.cls-4{fill:#fff;}.cls-3{fill:#4ba5e8;}</style></defs><g id="レイヤー_2" data-name="レイヤー 2"><g id="レイヤー_1-2" data-name="レイヤー 1"><path class="cls-1" d="M59.18,20.21s-29-20-50-2,8.55,100.09,31,96"/><path class="cls-1" d="M59.18,20.21s27-20,48-2-10,103-31,96"/><path class="cls-1" d="M38.18,114.21s19.77-31,38.5,0"/><path class="cls-2" d="M98.12,32a23.33,23.33,0,0,0-12-10.9,23,23,0,0,0,6.47-5A23,23,0,0,0,97,9.13,23.32,23.32,0,0,0,109,20a22.78,22.78,0,0,0-6.47,5A23.08,23.08,0,0,0,98.12,32Z"/><path class="cls-3" d="M97.15,13.25a25.7,25.7,0,0,0,7.69,7,25.69,25.69,0,0,0-6.92,7.61,25.45,25.45,0,0,0-7.68-7,25.43,25.43,0,0,0,3.84-3.45,25.27,25.27,0,0,0,3.07-4.15M96.5,0A20.76,20.76,0,0,1,77,21.47l.88,0a21.06,21.06,0,0,1,20.7,19.64,20.77,20.77,0,0,1,19.52-21.47l-.88,0A21.07,21.07,0,0,1,96.5,0Z"/><path class="cls-4" d="M37.57,29.73s10.77-6,20.28,6.58"/><path class="cls-4" d="M77.8,29.73s-10.77-6-20.28,6.58"/></g></g></svg>