<svg xmlns="http://www.w3.org/2000/svg" viewBox="0 0 134.91 126.5"><defs><style>.cls-1{fill:none;stroke:#4ba5e8;stroke-miterlimit:10;stroke-width:4px;}.cls-2{fill:#4ba5e8;}</style></defs><g id="レイヤー_2" data-name="レイヤー 2"><g id="レイヤー_1-2" data-name="レイヤー 1"><circle class="cls-1" cx="99.25" cy="60.25" r="26.25"/><circle class="cls-1" cx="41.25" cy="101.25" r="23.25"/><path class="cls-1" d="M99.5,33.5s-8.7,20.9-25.85,21"/><path class="cls-1" d="M97.65,35.87s10.78,19.91,27.85,18.21"/><ellipse class="cls-2" cx="89.82" cy="64" rx="2.82" ry="3"/><ellipse class="cls-2" cx="32.82" cy="105" rx="2.82" ry="3"/><ellipse class="cls-2" cx="105.82" cy="64" rx="2.82" ry="3"/><ellipse class="cls-2" cx="49.82" cy="104" rx="2.82" ry="3"/><path class="cls-1" d="M73.22,68.63c-3.45,1.75-4.89,8.23-6.56,10.37-2.18,2.8,12.87.25,13.61-2.24"/><path class="cls-1" d="M124.33,68.94c3.7,1.12,6.26,7.25,8.27,9.06,2.63,2.37-12.63,2.49-13.79.17"/><path class="cls-1" d="M93,73s5,7,10,0"/><path class="cls-1" d="M37,110s5,7,10,0"/><circle class="cls-1" cx="33.25" cy="33.25" r="31.25"/><path class="cls-1" d="M2.5,33.5c33-8,46-25,46-25S56,29,65,33"/><ellipse class="cls-2" cx="21.29" cy="37.5" rx="3.29" ry="3.5"/><ellipse class="cls-2" cx="42.29" cy="37.5" rx="3.29" ry="3.5"/><path class="cls-1" d="M28.27,48.72s5,7,10,0"/><path class="cls-1" d="M31,86s1,6,5,6,5-7,6-7,1,6,5,7,6-3,6-7"/></g></g></svg>