<svg xmlns="http://www.w3.org/2000/svg" viewBox="0 0 333.57 55.79"><defs><style>.cls-1{fill:#4ba5e8;}.cls-2{fill:#e9f921;}.cls-3{fill:#000444;}</style></defs><g id="レイヤー_2" data-name="レイヤー 2"><g id="レイヤー_1-2" data-name="レイヤー 1"><path class="cls-1" d="M25,5A20.07,20.07,0,0,1,44.54,20.66,5.53,5.53,0,0,0,50,25h0A25,25,0,1,0,0,25H0a5.54,5.54,0,0,0,5.42-4.32A20.06,20.06,0,0,1,25,5Z"/><path class="cls-1" d="M25,50.84A20.06,20.06,0,0,1,5.42,35.12,5.54,5.54,0,0,0,0,30.81H0a25,25,0,1,0,50,0h0a5.52,5.52,0,0,0-5.41,4.31A20.07,20.07,0,0,1,25,50.84Z"/><path class="cls-2" d="M25,25.92a3.34,3.34,0,1,0-6.65,0c0,3.5,5.11,7.56,6.65,7.56s6.64-4.06,6.64-7.56A3.33,3.33,0,1,0,25,25.92Z"/><path class="cls-1" d="M70.54,11.12c0-.7.89-1.28,2-1.28h2.65a2,2,0,0,0,2-1.95c0-1.07.62-1.95,1.38-1.95s1.38.88,1.38,1.95a2,2,0,0,0,2,2h2.52c1.09,0,2,.58,2,1.28s-.89,1.27-2,1.27H81.91a2,2,0,0,0-2,2v.47c0,1.09.6,1.94,1.35,1.89H82a10.14,10.14,0,0,1,6.61,2,6.12,6.12,0,0,1,2.49,4.86,7.48,7.48,0,0,1-2,5.49,10,10,0,0,1-4,2c-1.06.26-2-.13-2.2-.88s.59-1.55,1.66-1.8a5.79,5.79,0,0,0,2.29-1.15,4.53,4.53,0,0,0,1.35-3.5,3.62,3.62,0,0,0-1.71-2.94A7.5,7.5,0,0,0,82,19.59h-.76c-.72.05-1.31,1-1.31,2.08v3c0,1.09-.1,2.87-.22,4A2.92,2.92,0,0,1,79,30.15a4.28,4.28,0,0,1-3.21,1,6.21,6.21,0,0,1-4.46-1.81A5.81,5.81,0,0,1,69.44,25a6.6,6.6,0,0,1,2-4.69A12.11,12.11,0,0,1,75.3,18a3.07,3.07,0,0,0,1.87-2.67v-.92a2,2,0,0,0-2-2H72.53C71.43,12.39,70.54,11.82,70.54,11.12Zm6.63,11a1.27,1.27,0,0,0-1.86-1.27,5.66,5.66,0,0,0-1.84,1.25A4,4,0,0,0,72.2,25a3.48,3.48,0,0,0,1,2.45,3.09,3.09,0,0,0,2.28,1.09,1.63,1.63,0,0,0,1.3-.43l.24-.29c.06-.69.12-2.15.12-3.24ZM88.64,12c-.63-.89-.71-2-.17-2.46s1.5-.11,2.13.78l2.19,3.27c.58.93.57,2,0,2.42s-1.52,0-2.1-1Z"/><path class="cls-1" d="M109.45,15l-3.2,2.35a4.55,4.55,0,0,0-.49.42,1.23,1.23,0,0,0-.44.9,1.2,1.2,0,0,0,.38.84,4.25,4.25,0,0,0,.34.32l3.13,2.44,8.18,6.8a1.75,1.75,0,0,1,.48,2.41,1.83,1.83,0,0,1-2.5-.19l-7.88-6.58c-.85-.68-2.25-1.79-3.11-2.46a17.35,17.35,0,0,1-1.7-1.51,3.09,3.09,0,0,1-.63-2.07,3.21,3.21,0,0,1,.67-2.16A16.25,16.25,0,0,1,104.47,15l3.18-2.37,6.95-5.42a1.8,1.8,0,0,1,2.47-.12,1.79,1.79,0,0,1-.59,2.4Z"/><path class="cls-1" d="M137.39,7.42a1.4,1.4,0,0,1,1.53-1.13,1.32,1.32,0,0,1,1.36,1.35c-.05.73.73,2.35,1.83,2.35h6.35c1.09,0,2,.61,2,1.35s-.89,1.35-2,1.35h-6.52a2.09,2.09,0,0,0-2.09,1.91c0,1.06.78,2.53,1.87,2.53h4.95c1.09,0,2,.61,2,1.35s-.89,1.35-2,1.35h-5.06a2.07,2.07,0,0,0-2,2s0,.89,0,2c0,2.14.3,3.53.9,4.16s1.91.94,3.93.94a7.83,7.83,0,0,0,4.56-1,3.75,3.75,0,0,0,1.38-3.24v-.7a1.75,1.75,0,0,1,1-2.09c.74-.18,1.5.55,1.68,1.63a8.16,8.16,0,0,1,.08,1.37q0,6.9-8.7,6.9-4.47,0-6.1-1.68c-1.08-1.12-1.63-3.21-1.63-6.27,0-1.08,0-2,0-2a1.93,1.93,0,0,0-1.93-2h-2.18c-1.1,0-2-.6-2-1.35s.89-1.35,2-1.35h2.29c1.09,0,2-.47,2-1.05s-.72-3.39-1.81-3.39h-1.82c-1.1,0-2-.6-2-1.35s.89-1.35,2-1.35h2C136.33,10,137.35,8.07,137.39,7.42Z"/><path class="cls-1" d="M165.41,9a1.79,1.79,0,0,1,1.14-2.21c.81-.14,1.63.62,1.82,1.7l1,5.31a1.61,1.61,0,0,0,2.25,1.2L179,12.5c1.05-.31,2,.09,2.18.87s-.58,1.68-1.63,2c0,0-7.5,2.23-10.18,3.86s-4,3.3-4,5q0,4.35,7.31,4.35c2.69,0,6.7-.5,6.7-.5,1.08-.13,2,.4,2.13,1.18s-.72,1.53-1.8,1.67c0,0-4.18.5-7,.5q-5.1,0-7.73-1.8a6,6,0,0,1-2.62-5.25c0-2.66,3.28-5.74,3.28-5.74a4,4,0,0,0,1-3.31Z"/><path class="cls-1" d="M208.69,14.35a1.61,1.61,0,0,0-1.64-2H201a3.4,3.4,0,0,0-2.82,1.8l-3.43,5.53c-.67.85-1.68,1.12-2.24.58a2,2,0,0,1,.22-2.52,23.39,23.39,0,0,0,2.73-4.32,25.61,25.61,0,0,0,1.54-5c.2-1.07,1-1.9,1.77-1.84s1.36.53,1.3,1,.59,1.88,1.68,1.88h8.4c1.09,0,2,.14,2,.3s-.11,1.19-.24,2.27c0,0-1.22,9.91-4.13,13.21s-12,5.38-12,5.38c-1.06.25-2-.2-2.14-1s.66-1.62,1.73-1.85c0,0,7.33-1.62,9.74-4S208.69,14.35,208.69,14.35Z"/><path class="cls-1" d="M225.74,20.94a1.8,1.8,0,0,1-1.52-2V9.58a1.57,1.57,0,1,1,3,0V19A1.8,1.8,0,0,1,225.74,20.94ZM239.9,7.59a1.82,1.82,0,0,1,1.54,2v4c0,1.09-.11,2.87-.24,4,0,0-.86,7-3.07,9.49s-8.68,4.24-8.68,4.24a1.71,1.71,0,0,1-2.24-1,1.91,1.91,0,0,1,1.61-2s5.34-1.39,7-3.32,2.29-7.34,2.29-7.34c.12-1.09.22-2.87.22-4V9.58A1.81,1.81,0,0,1,239.9,7.59Z"/><path class="cls-1" d="M254.13,29.64a1.8,1.8,0,0,1-2-1.54,1.81,1.81,0,0,1,2-1.55h18.12a1.81,1.81,0,0,1,2,1.55,1.8,1.8,0,0,1-2,1.54ZM256.07,12a1.81,1.81,0,0,1-2-1.54,1.82,1.82,0,0,1,2-1.55h14.24a1.82,1.82,0,0,1,2,1.55,1.82,1.82,0,0,1-2,1.54Z"/><path class="cls-1" d="M285,16.06c-.27-1.06.11-2.07.83-2.24s1.53.55,1.81,1.61l1,4.13c.26,1.06-.14,2.07-.87,2.24s-1.54-.56-1.79-1.62Zm14.64-1.29c.06-1.09.73-1.95,1.49-1.91s1.28,1,1.15,2.05c0,0-1,8.57-3.12,11.3s-8.86,4.54-8.86,4.54c-1.06.28-2-.11-2.19-.87s.59-1.55,1.67-1.76A22.1,22.1,0,0,0,293.4,27a9.26,9.26,0,0,0,3.6-2.8,11.24,11.24,0,0,0,2-4.56A38.5,38.5,0,0,0,299.62,14.77Zm-8.65.48c-.27-1.06.12-2.07.85-2.24s1.56.55,1.83,1.61L294.7,19c.25,1.06-.15,2.08-.89,2.25s-1.54-.56-1.78-1.62Z"/><path class="cls-1" d="M330.14,14.35a1.62,1.62,0,0,0-1.64-2h-6.06a3.4,3.4,0,0,0-2.82,1.8l-3.43,5.53c-.67.85-1.68,1.12-2.24.58a2,2,0,0,1,.22-2.52,23.39,23.39,0,0,0,2.73-4.32,25.61,25.61,0,0,0,1.54-5c.2-1.07,1-1.9,1.77-1.84s1.36.53,1.3,1,.59,1.88,1.68,1.88h8.4c1.09,0,2,.14,2,.3s-.11,1.19-.24,2.27c0,0-1.22,9.91-4.13,13.21s-12.05,5.38-12.05,5.38c-1.06.25-2-.2-2.14-1s.66-1.62,1.73-1.85c0,0,7.33-1.62,9.74-4S330.14,14.35,330.14,14.35Z"/><path class="cls-3" d="M76.74,46.1a3.91,3.91,0,0,1-.92,2.76,3.21,3.21,0,0,1-2.45,1,3.11,3.11,0,0,1-2.41-1,4,4,0,0,1-.9-2.76V43.36A4,4,0,0,1,71,40.6a3.1,3.1,0,0,1,2.41-1,3.19,3.19,0,0,1,2.45,1,4,4,0,0,1,.92,2.76Zm-1.38-2.76a3.23,3.23,0,0,0-.52-2,1.75,1.75,0,0,0-1.47-.67,1.68,1.68,0,0,0-1.44.67,3.31,3.31,0,0,0-.5,2V46.1a3.28,3.28,0,0,0,.51,2,1.66,1.66,0,0,0,1.43.67,1.73,1.73,0,0,0,1.47-.67,3.19,3.19,0,0,0,.52-2Z"/><path class="cls-3" d="M86.73,45.24h-1V49.7H84.39v-10h1.39v4.37h.82l2.63-4.37h1.66l-3.13,4.72,3.37,5.23h-1.7Z"/><path class="cls-3" d="M104.36,39.75v6.89a3.12,3.12,0,0,1-.89,2.38,3.25,3.25,0,0,1-2.31.82A2.92,2.92,0,0,1,98,46.64V39.75h1.38v6.89a2.42,2.42,0,0,0,.47,1.61,1.65,1.65,0,0,0,1.3.54,1.72,1.72,0,0,0,1.33-.52,2.35,2.35,0,0,0,.49-1.63V39.75Z"/><path class="cls-3" d="M113.91,39.75l2.33,8.12h0l2.33-8.12h1.79v10H119V45.88l.12-3.83h0l-2.39,7.66h-.92l-2.39-7.65h0l.13,3.82V49.7h-1.37v-10Z"/><path class="cls-3" d="M134.69,46.1a3.91,3.91,0,0,1-.91,2.76,3.22,3.22,0,0,1-2.46,1,3.12,3.12,0,0,1-2.41-1A4,4,0,0,1,128,46.1V43.36a4,4,0,0,1,.89-2.76,3.11,3.11,0,0,1,2.41-1,3.17,3.17,0,0,1,2.45,1,3.9,3.9,0,0,1,.92,2.76Zm-1.38-2.76a3.17,3.17,0,0,0-.52-2,1.73,1.73,0,0,0-1.47-.67,1.66,1.66,0,0,0-1.43.67,3.31,3.31,0,0,0-.5,2V46.1a3.36,3.36,0,0,0,.5,2,1.68,1.68,0,0,0,1.43.67,1.76,1.76,0,0,0,1.48-.67,3.26,3.26,0,0,0,.51-2Z"/><path class="cls-3" d="M147.92,40.8h-2.55v8.9H144V40.8h-2.54v-1h6.48Z"/><path class="cls-3" d="M161.32,46.1a3.91,3.91,0,0,1-.91,2.76,3.23,3.23,0,0,1-2.46,1,3.12,3.12,0,0,1-2.41-1,4,4,0,0,1-.9-2.76V43.36a4,4,0,0,1,.9-2.76,3.1,3.1,0,0,1,2.41-1,3.19,3.19,0,0,1,2.45,1,4,4,0,0,1,.92,2.76Zm-1.38-2.76a3.17,3.17,0,0,0-.52-2A1.75,1.75,0,0,0,158,40.7a1.66,1.66,0,0,0-1.43.67,3.24,3.24,0,0,0-.5,2V46.1a3.29,3.29,0,0,0,.5,2,1.66,1.66,0,0,0,1.43.67,1.73,1.73,0,0,0,1.47-.67,3.19,3.19,0,0,0,.52-2Z"/><path class="cls-3" d="M178.08,49.7v-10h2.73a3.24,3.24,0,0,1,2.59,1.19,4.64,4.64,0,0,1,1,3.08v1.41a4.6,4.6,0,0,1-1,3.08,3.24,3.24,0,0,1-2.59,1.19Zm1.38-8.9v7.85h1.3a1.88,1.88,0,0,0,1.65-.9,4,4,0,0,0,.61-2.32V44a4,4,0,0,0-.61-2.31,1.89,1.89,0,0,0-1.65-.89Z"/><path class="cls-3" d="M197.1,45.07h-3.69v3.58h4.28V49.7H192v-10h5.63v1h-4.24V44h3.69Z"/><path class="cls-3" d="M211.62,49.7h-1.38l-3.77-7.4h0V49.7H205v-10h1.39l3.77,7.38h0V39.75h1.38Z"/><path class="cls-3" d="M225.18,40.8h-2.55v8.9h-1.39V40.8H218.7v-1h6.48Z"/><path class="cls-3" d="M236.42,47.18h-3.17l-.72,2.52h-1.41l3.06-10h1.34l3,10h-1.41Zm-2.85-1.1h2.54l-1.25-4.34h0Z"/><path class="cls-3" d="M247.11,48.65H251V49.7h-5.27v-10h1.38Z"/><path class="cls-3" d="M273.28,46.68l0,0a3.24,3.24,0,0,1-.8,2.31,2.94,2.94,0,0,1-2.22.81,3,3,0,0,1-2.34-1,4,4,0,0,1-.87-2.75V43.35a4.09,4.09,0,0,1,.86-2.76,2.92,2.92,0,0,1,2.31-1,3,3,0,0,1,2.25.8,3.34,3.34,0,0,1,.81,2.34l0,0H272a2.6,2.6,0,0,0-.43-1.61,1.55,1.55,0,0,0-1.29-.51,1.5,1.5,0,0,0-1.32.69,3.43,3.43,0,0,0-.48,2v2.79a3.48,3.48,0,0,0,.48,2,1.58,1.58,0,0,0,1.36.69,1.51,1.51,0,0,0,1.26-.5,2.63,2.63,0,0,0,.42-1.61Z"/><path class="cls-3" d="M282.25,48.65h3.88V49.7h-5.27v-10h1.39Z"/><path class="cls-3" d="M294.89,49.7h-1.38v-10h1.38Z"/><path class="cls-3" d="M309.56,49.7h-1.38l-3.77-7.4h0V49.7H303v-10h1.39l3.77,7.38h0V39.75h1.38Z"/><path class="cls-3" d="M319,49.7h-1.38v-10H319Z"/><path class="cls-3" d="M333,46.68l0,0a3.23,3.23,0,0,1-.79,2.31,3.36,3.36,0,0,1-4.56-.17,4,4,0,0,1-.88-2.75V43.35a4,4,0,0,1,.87-2.76,2.89,2.89,0,0,1,2.3-1,3,3,0,0,1,2.25.8,3.25,3.25,0,0,1,.81,2.34l0,0H331.7a2.74,2.74,0,0,0-.43-1.61,1.58,1.58,0,0,0-1.3-.51,1.51,1.51,0,0,0-1.32.69,3.44,3.44,0,0,0-.47,2v2.79a3.48,3.48,0,0,0,.48,2,1.56,1.56,0,0,0,1.36.69,1.54,1.54,0,0,0,1.26-.5,2.71,2.71,0,0,0,.41-1.61Z"/></g></g></svg>