<svg id="レイヤー_1" data-name="レイヤー 1" xmlns="http://www.w3.org/2000/svg" viewBox="0 0 841.89 595.28"><defs><style>.cls-1{fill:#4ba5e8;}.cls-2{fill:#e9f921;}.cls-3{fill:#000444;}.cls-4{fill:#fff;}</style></defs><rect x="224.89" y="337.38" width="382" height="100"/><path class="cls-1" d="M269.51,143.45a20.07,20.07,0,0,1,19.56,15.72,5.54,5.54,0,0,0,5.42,4.31h0a25,25,0,0,0-50,0h0a5.54,5.54,0,0,0,5.42-4.31A20.07,20.07,0,0,1,269.51,143.45Z"/><path class="cls-1" d="M269.51,189.34A20.07,20.07,0,0,1,250,173.63a5.54,5.54,0,0,0-5.42-4.32h0a25,25,0,0,0,50,0h0a5.54,5.54,0,0,0-5.42,4.32A20.07,20.07,0,0,1,269.51,189.34Z"/><path class="cls-2" d="M269.51,164.42a3.33,3.33,0,1,0-6.64,0c0,3.51,5.1,7.56,6.64,7.56s6.64-4,6.64-7.56A3.33,3.33,0,1,0,269.51,164.42Z"/><path class="cls-1" d="M315.07,149.62c0-.7.9-1.27,2-1.27h2.65a2,2,0,0,0,2-1.95c0-1.07.62-2,1.38-2s1.38.88,1.38,2a2,2,0,0,0,2,1.95H329c1.09,0,2,.57,2,1.27s-.89,1.28-2,1.28h-2.52a2,2,0,0,0-2,2v.47c0,1.1.61,2,1.35,1.9h.72a10.14,10.14,0,0,1,6.61,2,6.12,6.12,0,0,1,2.5,4.86,7.49,7.49,0,0,1-2,5.49,10,10,0,0,1-3.95,2c-1.06.27-2.06-.13-2.21-.87s.6-1.55,1.66-1.8a5.88,5.88,0,0,0,2.29-1.16,4.51,4.51,0,0,0,1.35-3.49,3.62,3.62,0,0,0-1.71-2.94,7.5,7.5,0,0,0-4.55-1.26h-.76c-.72.05-1.31,1-1.31,2.07v3c0,1.1-.1,2.88-.22,4a2.93,2.93,0,0,1-.71,1.54,4.27,4.27,0,0,1-3.21,1,6.24,6.24,0,0,1-4.46-1.82A5.79,5.79,0,0,1,314,163.5a6.66,6.66,0,0,1,2-4.7,12,12,0,0,1,3.84-2.32,3.08,3.08,0,0,0,1.86-2.68v-.92a2,2,0,0,0-2-2h-2.65C316,150.9,315.07,150.32,315.07,149.62Zm6.63,11a1.28,1.28,0,0,0-1.86-1.27,5.66,5.66,0,0,0-1.84,1.25,4,4,0,0,0-1.27,2.87,3.46,3.46,0,0,0,1,2.44A3.1,3.1,0,0,0,320,167a1.61,1.61,0,0,0,1.3-.44l.24-.29c.06-.69.12-2.14.12-3.24Zm11.48-10.18c-.64-.89-.72-2-.18-2.45s1.5-.12,2.14.77l2.18,3.27c.58.93.58,2,0,2.42s-1.52,0-2.1-.95Z"/><path class="cls-1" d="M354,153.52c-.88.66-2.31,1.71-3.2,2.35,0,0-.19.15-.49.43a1.25,1.25,0,0,0-.44.9,1.18,1.18,0,0,0,.39.84,3.66,3.66,0,0,0,.33.32c.86.66,2.27,1.76,3.13,2.44l8.18,6.79a1.77,1.77,0,0,1,.49,2.42,1.84,1.84,0,0,1-2.5-.2L352,163.23l-3.11-2.46a16.87,16.87,0,0,1-1.7-1.5,3.12,3.12,0,0,1-.63-2.07,3.19,3.19,0,0,1,.67-2.16,16.69,16.69,0,0,1,1.79-1.52l3.18-2.37,6.95-5.42A1.54,1.54,0,1,1,361,148Z"/><path class="cls-1" d="M381.93,145.92a1.4,1.4,0,0,1,1.52-1.13,1.33,1.33,0,0,1,1.36,1.36c0,.72.74,2.35,1.83,2.35H393c1.09,0,2,.61,2,1.35s-.9,1.35-2,1.35h-6.52a2.08,2.08,0,0,0-2.08,1.91c-.06,1,.77,2.53,1.86,2.53h4.95c1.09,0,2,.61,2,1.35s-.89,1.35-2,1.35h-5.06a2.06,2.06,0,0,0-2,2s0,.9,0,2c0,2.14.3,3.52.9,4.15s1.91,1,3.93,1a7.83,7.83,0,0,0,4.56-1,3.76,3.76,0,0,0,1.38-3.24v-.7a1.74,1.74,0,0,1,1-2.09c.73-.18,1.49.55,1.68,1.62a9.56,9.56,0,0,1,.07,1.38q0,6.9-8.7,6.9-4.47,0-6.1-1.68t-1.62-6.27c0-1.08,0-2,0-2a1.92,1.92,0,0,0-1.93-2h-2.18c-1.09,0-2-.61-2-1.35s.9-1.35,2-1.35h2.29c1.1,0,2-.47,2-1s-.71-3.39-1.8-3.39h-1.83c-1.09,0-2-.61-2-1.35s.9-1.35,2-1.35h2C380.86,148.5,381.88,146.57,381.93,145.92Z"/><path class="cls-1" d="M409.94,147.48a1.81,1.81,0,0,1,1.14-2.21c.81-.14,1.63.63,1.82,1.7l1,5.32a1.61,1.61,0,0,0,2.24,1.2l7.38-2.49c1-.3,2,.09,2.18.87s-.58,1.68-1.62,2c0,0-7.5,2.23-10.19,3.86s-4,3.31-4,5q0,4.35,7.31,4.35c2.69,0,6.7-.5,6.7-.5,1.08-.14,2,.39,2.14,1.17s-.73,1.54-1.81,1.67c0,0-4.17.51-7,.51-3.4,0-6-.6-7.72-1.8a6,6,0,0,1-2.63-5.25c0-2.66,3.28-5.75,3.28-5.75a4,4,0,0,0,1-3.3Z"/><path class="cls-1" d="M453.23,152.85a1.61,1.61,0,0,0-1.64-1.95h-6a3.4,3.4,0,0,0-2.83,1.8l-3.42,5.52c-.68.86-1.69,1.12-2.25.58a2,2,0,0,1,.23-2.51A23.89,23.89,0,0,0,440,152a25.61,25.61,0,0,0,1.54-5c.2-1.07,1-1.9,1.77-1.85s1.36.53,1.31,1,.58,1.88,1.67,1.88h8.4c1.09,0,2,.13,2,.3s-.11,1.18-.24,2.27c0,0-1.22,9.91-4.13,13.21s-12.05,5.38-12.05,5.38c-1.06.24-2-.2-2.14-1s.67-1.61,1.73-1.85c0,0,7.33-1.62,9.74-4S453.23,152.85,453.23,152.85Z"/><path class="cls-1" d="M470.27,159.45a1.8,1.8,0,0,1-1.52-2v-9.38a1.57,1.57,0,1,1,3,0v9.38A1.81,1.81,0,0,1,470.27,159.45Zm14.16-13.35a1.8,1.8,0,0,1,1.54,2v4c0,1.1-.11,2.88-.24,4,0,0-.86,6.95-3.07,9.49s-8.68,4.24-8.68,4.24a1.71,1.71,0,0,1-2.23-1,1.89,1.89,0,0,1,1.6-2s5.35-1.4,7-3.33,2.29-7.34,2.29-7.34c.12-1.08.22-2.86.22-4v-4.07A1.81,1.81,0,0,1,484.43,146.1Z"/><path class="cls-1" d="M498.67,168.15a1.59,1.59,0,1,1,0-3.09h18.11a1.59,1.59,0,1,1,0,3.09Zm1.93-17.61a1.59,1.59,0,1,1,0-3.09h14.25a1.59,1.59,0,1,1,0,3.09Z"/><path class="cls-1" d="M529.51,154.56c-.26-1.06.11-2.06.83-2.24s1.53.55,1.81,1.61l1,4.13c.25,1.06-.14,2.07-.88,2.24s-1.54-.55-1.79-1.61Zm14.64-1.29c.06-1.09.74-2,1.49-1.91s1.28,1,1.15,2c0,0-1,8.57-3.12,11.3s-8.86,4.54-8.86,4.54c-1,.29-2-.1-2.19-.86s.6-1.56,1.67-1.77a21.36,21.36,0,0,0,3.64-1.08,9.28,9.28,0,0,0,3.6-2.81,11.24,11.24,0,0,0,2-4.56A38.5,38.5,0,0,0,544.15,153.27Zm-8.65.48c-.26-1.06.12-2.06.86-2.24s1.55.55,1.82,1.61l1.05,4.4c.25,1.06-.15,2.07-.89,2.24s-1.53-.55-1.78-1.62Z"/><path class="cls-1" d="M574.67,152.85A1.61,1.61,0,0,0,573,150.9h-6a3.4,3.4,0,0,0-2.83,1.8l-3.42,5.52c-.68.86-1.69,1.12-2.25.58a2,2,0,0,1,.23-2.51,23.89,23.89,0,0,0,2.72-4.33,25.61,25.61,0,0,0,1.54-5c.2-1.07,1-1.9,1.77-1.85s1.36.53,1.31,1,.58,1.88,1.67,1.88h8.4c1.09,0,2,.13,2,.3s-.11,1.18-.24,2.27c0,0-1.22,9.91-4.13,13.21s-12.05,5.38-12.05,5.38c-1.06.24-2-.2-2.14-1s.67-1.61,1.73-1.85c0,0,7.33-1.62,9.74-4S574.67,152.85,574.67,152.85Z"/><path class="cls-3" d="M321.27,184.6a3.87,3.87,0,0,1-.92,2.76,3.17,3.17,0,0,1-2.45,1,3.08,3.08,0,0,1-2.41-1,4,4,0,0,1-.9-2.76v-2.73a4,4,0,0,1,.9-2.76,3.07,3.07,0,0,1,2.41-1,3.15,3.15,0,0,1,2.45,1,3.91,3.91,0,0,1,.92,2.76Zm-1.38-2.75a3.18,3.18,0,0,0-.52-2,1.78,1.78,0,0,0-1.47-.67,1.72,1.72,0,0,0-1.44.67,3.33,3.33,0,0,0-.49,2v2.75a3.27,3.27,0,0,0,.5,2,1.67,1.67,0,0,0,1.43.68,1.73,1.73,0,0,0,1.47-.68,3.17,3.17,0,0,0,.52-2Z"/><path class="cls-3" d="M331.26,183.74h-.95v4.46h-1.39v-9.95h1.39v4.38h.83l2.63-4.38h1.65L332.29,183l3.37,5.23H334Z"/><path class="cls-3" d="M348.89,178.25v6.9a3.08,3.08,0,0,1-.89,2.37,3.25,3.25,0,0,1-2.31.83,3.18,3.18,0,0,1-2.28-.83,3.11,3.11,0,0,1-.87-2.37v-6.9h1.38v6.9a2.34,2.34,0,0,0,.48,1.6,1.64,1.64,0,0,0,1.29.54,1.75,1.75,0,0,0,1.33-.51,2.3,2.3,0,0,0,.49-1.63v-6.9Z"/><path class="cls-3" d="M358.45,178.25l2.32,8.12h0l2.33-8.12h1.79v9.95h-1.37v-3.82l.12-3.83h0l-2.39,7.65h-.92L358,180.55h0l.12,3.82v3.82h-1.37v-9.95Z"/><path class="cls-3" d="M379.23,184.6a3.91,3.91,0,0,1-.92,2.76,3.18,3.18,0,0,1-2.45,1,3.1,3.1,0,0,1-2.42-1,4,4,0,0,1-.89-2.76v-2.73a4,4,0,0,1,.9-2.76,3.07,3.07,0,0,1,2.41-1,3.17,3.17,0,0,1,2.45,1,3.91,3.91,0,0,1,.92,2.76Zm-1.38-2.75a3.25,3.25,0,0,0-.52-2,1.78,1.78,0,0,0-1.47-.67,1.7,1.7,0,0,0-1.44.67,3.32,3.32,0,0,0-.5,2v2.75a3.34,3.34,0,0,0,.5,2,1.7,1.7,0,0,0,1.44.68,1.75,1.75,0,0,0,1.47-.68,3.24,3.24,0,0,0,.52-2Z"/><path class="cls-3" d="M392.45,179.3H389.9v8.9h-1.39v-8.9H386v-1.05h6.48Z"/><path class="cls-3" d="M405.85,184.6a3.91,3.91,0,0,1-.91,2.76,3.19,3.19,0,0,1-2.46,1,3.09,3.09,0,0,1-2.41-1,4,4,0,0,1-.9-2.76v-2.73a4,4,0,0,1,.9-2.76,3.08,3.08,0,0,1,2.41-1,3.15,3.15,0,0,1,2.45,1,3.87,3.87,0,0,1,.92,2.76Zm-1.38-2.75a3.18,3.18,0,0,0-.52-2,1.75,1.75,0,0,0-1.47-.67,1.69,1.69,0,0,0-1.43.67,3.32,3.32,0,0,0-.5,2v2.75a3.34,3.34,0,0,0,.5,2,1.68,1.68,0,0,0,1.43.68,1.77,1.77,0,0,0,1.48-.68,3.24,3.24,0,0,0,.51-2Z"/><path class="cls-3" d="M422.61,188.2v-9.95h2.73a3.22,3.22,0,0,1,2.59,1.2,4.59,4.59,0,0,1,1,3.07v1.42a4.57,4.57,0,0,1-1,3.07,3.21,3.21,0,0,1-2.59,1.19Zm1.39-8.9v7.85h1.3a1.91,1.91,0,0,0,1.65-.9,4.08,4.08,0,0,0,.6-2.32V182.5a4,4,0,0,0-.6-2.3,1.91,1.91,0,0,0-1.65-.9Z"/><path class="cls-3" d="M441.63,183.58h-3.69v3.57h4.28v1h-5.67v-9.95h5.63v1.05h-4.24v3.22h3.69Z"/><path class="cls-3" d="M456.15,188.2h-1.38L451,180.8h0v7.39h-1.39v-9.95H451l3.77,7.38h0v-7.37h1.38Z"/><path class="cls-3" d="M469.72,179.3h-2.56v8.9h-1.39v-8.9h-2.54v-1.05h6.49Z"/><path class="cls-3" d="M481,185.69h-3.17l-.72,2.51h-1.41l3.06-9.95h1.34l3,9.95h-1.41Zm-2.85-1.1h2.54l-1.24-4.35h0Z"/><path class="cls-3" d="M491.65,187.15h3.88v1h-5.27v-9.95h1.39Z"/><path class="cls-3" d="M517.81,185.18l0,0a3.24,3.24,0,0,1-.79,2.31,3,3,0,0,1-2.23.82,3,3,0,0,1-2.33-1,4,4,0,0,1-.88-2.75v-2.76a4,4,0,0,1,.87-2.75,2.89,2.89,0,0,1,2.3-1,3,3,0,0,1,2.25.8,3.21,3.21,0,0,1,.81,2.33l0,0H516.5a2.72,2.72,0,0,0-.43-1.61,1.56,1.56,0,0,0-1.3-.52,1.5,1.5,0,0,0-1.32.69,3.44,3.44,0,0,0-.47,2v2.79a3.46,3.46,0,0,0,.48,2,1.55,1.55,0,0,0,1.35.69,1.51,1.51,0,0,0,1.27-.5,2.68,2.68,0,0,0,.41-1.61Z"/><path class="cls-3" d="M526.78,187.15h3.88v1h-5.27v-9.95h1.39Z"/><path class="cls-3" d="M539.42,188.2H538v-9.95h1.38Z"/><path class="cls-3" d="M554.09,188.2h-1.38l-3.77-7.4h0v7.39h-1.39v-9.95h1.39l3.77,7.38h0v-7.37h1.38Z"/><path class="cls-3" d="M563.57,188.2h-1.38v-9.95h1.38Z"/><path class="cls-3" d="M577.54,185.18l0,0a3.2,3.2,0,0,1-.79,2.31,3.33,3.33,0,0,1-4.56-.17,4,4,0,0,1-.88-2.75v-2.76a4,4,0,0,1,.87-2.75,2.91,2.91,0,0,1,2.31-1,3,3,0,0,1,2.25.8,3.25,3.25,0,0,1,.8,2.33l0,0h-1.31a2.65,2.65,0,0,0-.43-1.61,1.54,1.54,0,0,0-1.29-.52,1.52,1.52,0,0,0-1.33.69,3.52,3.52,0,0,0-.47,2v2.79a3.46,3.46,0,0,0,.48,2,1.56,1.56,0,0,0,1.36.69,1.51,1.51,0,0,0,1.26-.5,2.62,2.62,0,0,0,.41-1.61Z"/><path d="M271,247.09a20.07,20.07,0,0,1,19.56,15.71,5.54,5.54,0,0,0,5.42,4.32h0a25,25,0,1,0-50,0h0a5.54,5.54,0,0,0,5.42-4.32A20.07,20.07,0,0,1,271,247.09Z"/><path d="M271,293a20.07,20.07,0,0,1-19.56-15.71A5.54,5.54,0,0,0,246,273h0a25,25,0,0,0,50,0h0a5.54,5.54,0,0,0-5.42,4.32A20.07,20.07,0,0,1,271,293Z"/><path d="M271,268.06a3.33,3.33,0,1,0-6.64,0c0,3.51,5.1,7.56,6.64,7.56s6.64-4.05,6.64-7.56A3.33,3.33,0,1,0,271,268.06Z"/><path d="M316.54,253.26c0-.7.9-1.27,2-1.27h2.65a2,2,0,0,0,2-2c0-1.08.62-1.95,1.38-1.95s1.38.87,1.38,1.95a2,2,0,0,0,2,2h2.52c1.09,0,2,.57,2,1.27s-.89,1.28-2,1.28h-2.52a2,2,0,0,0-2,2V257c0,1.09.61,1.95,1.35,1.9H328a10.14,10.14,0,0,1,6.61,2,6.12,6.12,0,0,1,2.5,4.86,7.49,7.49,0,0,1-2,5.49,10,10,0,0,1-3.95,2c-1.06.26-2.06-.13-2.21-.87s.6-1.56,1.66-1.8a5.88,5.88,0,0,0,2.29-1.16,4.51,4.51,0,0,0,1.35-3.49,3.62,3.62,0,0,0-1.71-2.94,7.5,7.5,0,0,0-4.55-1.26h-.76c-.72.05-1.31,1-1.31,2.07v3c0,1.09-.1,2.87-.22,4a2.93,2.93,0,0,1-.71,1.54,4.27,4.27,0,0,1-3.21,1,6.24,6.24,0,0,1-4.46-1.82,5.79,5.79,0,0,1-1.89-4.33,6.66,6.66,0,0,1,2-4.7,12.11,12.11,0,0,1,3.84-2.33,3.06,3.06,0,0,0,1.86-2.67v-.92a2,2,0,0,0-2-2h-2.65C317.44,254.54,316.54,254,316.54,253.26Zm6.63,11a1.28,1.28,0,0,0-1.86-1.27,5.66,5.66,0,0,0-1.84,1.25,4,4,0,0,0-1.27,2.87,3.46,3.46,0,0,0,1,2.44,3.1,3.1,0,0,0,2.28,1.1,1.61,1.61,0,0,0,1.3-.44l.24-.29c.06-.69.12-2.15.12-3.24Zm11.48-10.18c-.64-.89-.72-2-.18-2.45s1.5-.12,2.14.77l2.18,3.27c.58.93.58,2,0,2.42s-1.52,0-2.1-.95Z"/><path d="M355.45,257.16c-.88.65-2.31,1.71-3.2,2.35a5.81,5.81,0,0,0-.49.43,1.25,1.25,0,0,0-.44.9,1.18,1.18,0,0,0,.39.84,2.41,2.41,0,0,0,.33.31l3.13,2.44,8.18,6.8a1.77,1.77,0,0,1,.49,2.42,1.84,1.84,0,0,1-2.5-.2l-7.89-6.58c-.85-.68-2.25-1.79-3.11-2.46a16.87,16.87,0,0,1-1.7-1.5,3.12,3.12,0,0,1-.63-2.07,3.19,3.19,0,0,1,.67-2.16,16.69,16.69,0,0,1,1.79-1.52l3.18-2.37,7-5.42a1.54,1.54,0,1,1,1.88,2.28Z"/><path d="M383.39,249.56a1.41,1.41,0,0,1,1.53-1.13,1.33,1.33,0,0,1,1.36,1.36c0,.72.74,2.35,1.83,2.35h6.35c1.09,0,2,.6,2,1.35s-.9,1.35-2,1.35h-6.52a2.08,2.08,0,0,0-2.08,1.91c-.06,1.05.77,2.53,1.86,2.53h4.95c1.09,0,2,.6,2,1.35s-.89,1.35-2,1.35h-5.06a2.06,2.06,0,0,0-2,2s0,.9,0,2c0,2.14.3,3.52.9,4.15s1.91,1,3.93,1a7.83,7.83,0,0,0,4.56-1,3.76,3.76,0,0,0,1.38-3.24v-.7a1.75,1.75,0,0,1,1-2.09c.74-.19,1.5.55,1.68,1.62a8.38,8.38,0,0,1,.08,1.38q0,6.9-8.7,6.9-4.47,0-6.1-1.68t-1.62-6.27c0-1.08,0-2,0-2a1.92,1.92,0,0,0-1.93-2h-2.18c-1.09,0-2-.61-2-1.35s.9-1.35,2-1.35h2.29c1.1,0,2-.48,2-1s-.71-3.39-1.81-3.39h-1.82c-1.09,0-2-.61-2-1.35s.9-1.35,2-1.35h2C382.33,252.14,383.35,250.21,383.39,249.56Z"/><path d="M411.41,251.12a1.81,1.81,0,0,1,1.14-2.21c.81-.14,1.63.63,1.82,1.7l1,5.31a1.6,1.6,0,0,0,2.24,1.2l7.38-2.48c1.05-.31,2,.09,2.18.87s-.58,1.68-1.62,2c0,0-7.5,2.23-10.19,3.86s-4,3.31-4,5q0,4.35,7.31,4.35a67.15,67.15,0,0,0,6.7-.51c1.08-.13,2,.4,2.14,1.18s-.73,1.53-1.81,1.67c0,0-4.18.51-7,.51-3.4,0-6-.6-7.72-1.8a6,6,0,0,1-2.63-5.25c0-2.66,3.28-5.75,3.28-5.75a4,4,0,0,0,1-3.31Z"/><path d="M454.7,256.49a1.61,1.61,0,0,0-1.64-2H447a3.39,3.39,0,0,0-2.83,1.79l-3.42,5.53c-.68.85-1.69,1.12-2.25.58a2,2,0,0,1,.23-2.52,23.62,23.62,0,0,0,2.72-4.32,25.61,25.61,0,0,0,1.54-5c.2-1.08,1-1.91,1.77-1.85s1.36.53,1.3,1.05.59,1.88,1.68,1.88h8.4c1.09,0,2,.13,2,.3s-.11,1.18-.24,2.27c0,0-1.22,9.91-4.13,13.21s-12.05,5.38-12.05,5.38c-1.06.24-2-.21-2.14-1s.67-1.62,1.73-1.85c0,0,7.33-1.62,9.74-4S454.7,256.49,454.7,256.49Z"/><path d="M471.74,263.09a1.81,1.81,0,0,1-1.52-2v-9.38a1.57,1.57,0,1,1,3,0v9.38A1.82,1.82,0,0,1,471.74,263.09Zm14.16-13.35a1.8,1.8,0,0,1,1.54,2v4c0,1.09-.11,2.87-.24,4,0,0-.86,6.95-3.07,9.49s-8.68,4.23-8.68,4.23a1.71,1.71,0,0,1-2.24-1,1.9,1.9,0,0,1,1.61-2s5.35-1.4,7-3.33,2.29-7.34,2.29-7.34c.12-1.09.22-2.87.22-4v-4.07A1.81,1.81,0,0,1,485.9,249.74Z"/><path d="M500.14,271.79a1.59,1.59,0,1,1,0-3.09h18.11a1.59,1.59,0,1,1,0,3.09Zm1.93-17.61a1.59,1.59,0,1,1,0-3.09h14.25a1.59,1.59,0,1,1,0,3.09Z"/><path d="M531,258.2c-.26-1.06.11-2.07.83-2.24s1.53.55,1.81,1.61l1,4.13c.25,1.06-.14,2.07-.88,2.24s-1.54-.55-1.79-1.62Zm14.64-1.29c.06-1.09.73-2,1.49-1.91s1.28,1,1.15,2.05c0,0-1,8.57-3.12,11.3s-8.86,4.54-8.86,4.54c-1,.28-2-.11-2.19-.86s.6-1.56,1.67-1.77a21.36,21.36,0,0,0,3.64-1.08,9.28,9.28,0,0,0,3.6-2.81,11.24,11.24,0,0,0,2-4.56A38.5,38.5,0,0,0,545.62,256.91Zm-8.65.48c-.26-1.06.12-2.07.86-2.24s1.55.55,1.82,1.61l1.05,4.39c.25,1.07-.15,2.08-.89,2.25s-1.53-.55-1.78-1.62Z"/><path d="M576.14,256.49a1.61,1.61,0,0,0-1.64-2h-6a3.39,3.39,0,0,0-2.83,1.79l-3.42,5.53c-.68.85-1.69,1.12-2.25.58a2,2,0,0,1,.23-2.52,23.62,23.62,0,0,0,2.72-4.32,25.61,25.61,0,0,0,1.54-5c.2-1.08,1-1.91,1.77-1.85s1.36.53,1.31,1.05.58,1.88,1.67,1.88h8.4c1.09,0,2,.13,2,.3s-.11,1.18-.24,2.27c0,0-1.22,9.91-4.13,13.21s-12.05,5.38-12.05,5.38c-1.06.24-2-.21-2.14-1s.67-1.62,1.73-1.85c0,0,7.33-1.62,9.74-4S576.14,256.49,576.14,256.49Z"/><path d="M322.74,288.24a3.91,3.91,0,0,1-.92,2.76,3.16,3.16,0,0,1-2.45,1,3.07,3.07,0,0,1-2.41-1,4,4,0,0,1-.9-2.76V285.5a4,4,0,0,1,.9-2.76,3.1,3.1,0,0,1,2.41-1,3.19,3.19,0,0,1,2.45,1,4,4,0,0,1,.92,2.76Zm-1.38-2.76a3.17,3.17,0,0,0-.52-2,1.75,1.75,0,0,0-1.47-.67,1.7,1.7,0,0,0-1.44.67,3.31,3.31,0,0,0-.49,2v2.76a3.29,3.29,0,0,0,.5,2,1.66,1.66,0,0,0,1.43.67,1.73,1.73,0,0,0,1.47-.67,3.19,3.19,0,0,0,.52-2Z"/><path d="M332.73,287.38h-1v4.46h-1.39v-9.95h1.39v4.37h.82l2.64-4.37h1.65l-3.13,4.72,3.37,5.23h-1.7Z"/><path d="M350.36,281.89v6.9a3.08,3.08,0,0,1-.89,2.37,3.25,3.25,0,0,1-2.31.82,3.17,3.17,0,0,1-2.28-.82,3.11,3.11,0,0,1-.87-2.37v-6.9h1.38v6.9a2.34,2.34,0,0,0,.48,1.6,1.64,1.64,0,0,0,1.29.54,1.72,1.72,0,0,0,1.33-.52,2.28,2.28,0,0,0,.49-1.62v-6.9Z"/><path d="M359.91,281.89l2.33,8.12h0l2.33-8.12h1.79v9.95H365V288l.12-3.83h0l-2.39,7.66h-.92l-2.38-7.65h-.05l.13,3.82v3.82h-1.37v-9.95Z"/><path d="M380.7,288.24a3.91,3.91,0,0,1-.92,2.76,3.17,3.17,0,0,1-2.45,1,3.09,3.09,0,0,1-2.42-1,4,4,0,0,1-.89-2.76V285.5a4,4,0,0,1,.9-2.76,3.1,3.1,0,0,1,2.41-1,3.2,3.2,0,0,1,2.45,1,4,4,0,0,1,.92,2.76Zm-1.38-2.76a3.23,3.23,0,0,0-.52-2,1.75,1.75,0,0,0-1.47-.67,1.67,1.67,0,0,0-1.44.67,3.31,3.31,0,0,0-.5,2v2.76a3.36,3.36,0,0,0,.5,2,1.7,1.7,0,0,0,1.44.67,1.75,1.75,0,0,0,1.47-.67,3.26,3.26,0,0,0,.52-2Z"/><path d="M393.92,282.94h-2.55v8.9H390v-8.9h-2.54v-1.05h6.48Z"/><path d="M407.32,288.24a3.91,3.91,0,0,1-.91,2.76,3.18,3.18,0,0,1-2.46,1,3.09,3.09,0,0,1-2.41-1,4,4,0,0,1-.9-2.76V285.5a4,4,0,0,1,.9-2.76,3.11,3.11,0,0,1,2.41-1,3.19,3.19,0,0,1,2.45,1,3.9,3.9,0,0,1,.92,2.76Zm-1.38-2.76a3.17,3.17,0,0,0-.52-2,1.73,1.73,0,0,0-1.47-.67,1.66,1.66,0,0,0-1.43.67,3.24,3.24,0,0,0-.5,2v2.76a3.36,3.36,0,0,0,.5,2,1.68,1.68,0,0,0,1.43.67,1.76,1.76,0,0,0,1.48-.67,3.26,3.26,0,0,0,.51-2Z"/><path d="M424.08,291.84v-9.95h2.73a3.24,3.24,0,0,1,2.59,1.19,4.64,4.64,0,0,1,1,3.08v1.42a4.59,4.59,0,0,1-1,3.07,3.24,3.24,0,0,1-2.59,1.19Zm1.39-8.9v7.85h1.29a1.91,1.91,0,0,0,1.66-.9,4.1,4.1,0,0,0,.6-2.32v-1.43a4.09,4.09,0,0,0-.6-2.31,1.92,1.92,0,0,0-1.66-.89Z"/><path d="M443.1,287.21h-3.69v3.58h4.28v1H438v-9.95h5.63v1.05h-4.24v3.22h3.69Z"/><path d="M457.62,291.84h-1.38l-3.77-7.4h0v7.39H451v-9.95h1.39l3.77,7.38h0v-7.37h1.38Z"/><path d="M471.19,282.94h-2.56v8.9h-1.39v-8.9H464.7v-1.05h6.49Z"/><path d="M482.42,289.33h-3.17l-.72,2.51h-1.41l3.06-9.95h1.34l3,9.95h-1.41Zm-2.85-1.11h2.54l-1.24-4.34h-.05Z"/><path d="M493.12,290.79H497v1h-5.27v-9.95h1.39Z"/><path d="M519.28,288.82l0,0a3.28,3.28,0,0,1-.79,2.31,3,3,0,0,1-2.23.81,2.94,2.94,0,0,1-2.33-1,4,4,0,0,1-.88-2.75v-2.76a4,4,0,0,1,.87-2.75,2.87,2.87,0,0,1,2.3-1,3,3,0,0,1,2.25.8,3.3,3.3,0,0,1,.81,2.34l0,0H518a2.67,2.67,0,0,0-.44-1.61,1.55,1.55,0,0,0-1.29-.51,1.5,1.5,0,0,0-1.32.69,3.44,3.44,0,0,0-.47,2v2.79a3.48,3.48,0,0,0,.48,2,1.75,1.75,0,0,0,2.62.19,2.71,2.71,0,0,0,.41-1.61Z"/><path d="M528.25,290.79h3.88v1h-5.27v-9.95h1.39Z"/><path d="M540.89,291.84h-1.38v-9.95h1.38Z"/><path d="M555.56,291.84h-1.38l-3.77-7.4h0v7.39H549v-9.95h1.39l3.77,7.38h0v-7.37h1.38Z"/><path d="M565,291.84h-1.38v-9.95H565Z"/><path d="M579,288.82l0,0a3.23,3.23,0,0,1-.79,2.31,3.36,3.36,0,0,1-4.56-.17,4,4,0,0,1-.88-2.75v-2.76a4,4,0,0,1,.87-2.75,2.89,2.89,0,0,1,2.31-1,3,3,0,0,1,2.25.8,3.29,3.29,0,0,1,.8,2.34l0,0H577.7a2.67,2.67,0,0,0-.43-1.61,1.57,1.57,0,0,0-1.29-.51,1.52,1.52,0,0,0-1.33.69,3.52,3.52,0,0,0-.47,2v2.79a3.48,3.48,0,0,0,.48,2,1.56,1.56,0,0,0,1.36.69,1.54,1.54,0,0,0,1.26-.5,2.71,2.71,0,0,0,.41-1.61Z"/><path class="cls-4" d="M274.09,364.43a20,20,0,0,1,19.55,15.72,5.54,5.54,0,0,0,5.42,4.31h0a25,25,0,1,0-49.95,0h0a5.54,5.54,0,0,0,5.42-4.31A20.05,20.05,0,0,1,274.09,364.43Z"/><path class="cls-4" d="M274.09,410.32a20.05,20.05,0,0,1-19.56-15.71,5.54,5.54,0,0,0-5.42-4.32h0a25,25,0,1,0,49.95,0h0a5.54,5.54,0,0,0-5.42,4.32A20.05,20.05,0,0,1,274.09,410.32Z"/><path class="cls-4" d="M274.09,385.4a3.34,3.34,0,1,0-6.65,0c0,3.51,5.11,7.56,6.65,7.56s6.64-4,6.64-7.56A3.33,3.33,0,1,0,274.09,385.4Z"/><path class="cls-4" d="M319.65,370.6c0-.7.89-1.27,2-1.27h2.66a2,2,0,0,0,2-1.95c0-1.08.62-1.95,1.38-1.95s1.38.87,1.38,1.95a2,2,0,0,0,2,1.95h2.52c1.09,0,2,.57,2,1.27s-.89,1.28-2,1.28H331a2,2,0,0,0-2,2v.47c0,1.09.61,1.95,1.36,1.9h.71a10.12,10.12,0,0,1,6.61,2,6.09,6.09,0,0,1,2.5,4.86,7.45,7.45,0,0,1-2,5.49,9.89,9.89,0,0,1-4,2c-1.06.26-2-.13-2.2-.87s.59-1.56,1.66-1.8a6,6,0,0,0,2.29-1.16,4.51,4.51,0,0,0,1.35-3.49,3.62,3.62,0,0,0-1.71-2.94,7.52,7.52,0,0,0-4.56-1.26h-.75c-.72.05-1.32,1-1.32,2.07v3c0,1.09-.09,2.87-.21,4a2.93,2.93,0,0,1-.71,1.54,4.29,4.29,0,0,1-3.22,1,6.21,6.21,0,0,1-4.45-1.82,5.79,5.79,0,0,1-1.89-4.33,6.65,6.65,0,0,1,2-4.7,12.22,12.22,0,0,1,3.84-2.33,3,3,0,0,0,1.86-2.67v-.92a2,2,0,0,0-2-2h-2.66C320.54,371.88,319.65,371.3,319.65,370.6Zm6.62,11a1.27,1.27,0,0,0-1.85-1.27,5.66,5.66,0,0,0-1.84,1.25,4,4,0,0,0-1.27,2.87,3.46,3.46,0,0,0,1,2.44,3.1,3.1,0,0,0,2.28,1.1,1.59,1.59,0,0,0,1.29-.44l.24-.29c.07-.69.12-2.15.12-3.24Zm11.48-10.18c-.63-.89-.71-2-.17-2.45s1.5-.12,2.13.77L341.9,373c.57.93.57,2,0,2.42s-1.53,0-2.1-.95Z"/><path class="cls-4" d="M358.56,374.5l-3.2,2.35a5.81,5.81,0,0,0-.49.43,1.21,1.21,0,0,0-.44.9,1.16,1.16,0,0,0,.38.84,2.68,2.68,0,0,0,.34.31l3.12,2.44,8.18,6.8a1.75,1.75,0,0,1,.49,2.42,1.84,1.84,0,0,1-2.5-.2l-7.88-6.58-3.11-2.46a16.87,16.87,0,0,1-1.7-1.5,3.07,3.07,0,0,1-.64-2.07,3.2,3.2,0,0,1,.68-2.16,16.69,16.69,0,0,1,1.79-1.52l3.18-2.37,6.94-5.42a1.8,1.8,0,0,1,2.48-.11,1.77,1.77,0,0,1-.6,2.39Z"/><path class="cls-4" d="M386.5,366.9a1.4,1.4,0,0,1,1.53-1.13,1.33,1.33,0,0,1,1.36,1.36c-.05.72.73,2.35,1.82,2.35h6.36c1.09,0,2,.6,2,1.35s-.89,1.35-2,1.35h-6.52a2.09,2.09,0,0,0-2.09,1.91c0,1.05.78,2.53,1.87,2.53h4.94c1.1,0,2,.6,2,1.35s-.89,1.35-2,1.35h-5a2.06,2.06,0,0,0-2,2s0,.9,0,2c0,2.14.3,3.52.9,4.15s1.91.95,3.93.95a7.8,7.8,0,0,0,4.55-1,3.76,3.76,0,0,0,1.38-3.24v-.7a1.75,1.75,0,0,1,1-2.09c.74-.19,1.49.55,1.68,1.62a9.56,9.56,0,0,1,.07,1.38q0,6.9-8.69,6.9-4.47,0-6.1-1.68t-1.63-6.27c0-1.08,0-2,0-2a1.92,1.92,0,0,0-1.93-2h-2.19c-1.09,0-2-.61-2-1.35s.89-1.35,2-1.35H384c1.09,0,2-.48,2-1.05s-.72-3.39-1.81-3.39h-1.83c-1.09,0-2-.61-2-1.35s.89-1.35,2-1.35h2C385.44,369.48,386.46,367.55,386.5,366.9Z"/><path class="cls-4" d="M414.52,368.46a1.79,1.79,0,0,1,1.14-2.21c.81-.14,1.63.63,1.82,1.7l1,5.31a1.61,1.61,0,0,0,2.25,1.2l7.38-2.48c1-.31,2,.09,2.18.87s-.58,1.68-1.63,2c0,0-7.5,2.23-10.18,3.86s-4,3.31-4,5c0,2.9,2.43,4.35,7.31,4.35a67.15,67.15,0,0,0,6.7-.51c1.08-.13,2,.4,2.13,1.18s-.72,1.53-1.8,1.67c0,0-4.18.51-7,.51q-5.1,0-7.73-1.8a6,6,0,0,1-2.62-5.25c0-2.66,3.28-5.75,3.28-5.75a4,4,0,0,0,1-3.31Z"/><path class="cls-4" d="M457.8,373.83a1.61,1.61,0,0,0-1.64-1.95h-6.05a3.41,3.41,0,0,0-2.82,1.79l-3.43,5.53c-.67.85-1.68,1.12-2.25.58a2,2,0,0,1,.23-2.52,23.39,23.39,0,0,0,2.73-4.32,25.23,25.23,0,0,0,1.53-5c.21-1.08,1-1.91,1.78-1.85s1.36.53,1.3,1,.59,1.88,1.68,1.88h8.39c1.1,0,2,.13,2,.3s-.11,1.18-.24,2.27c0,0-1.22,9.91-4.14,13.21s-12,5.38-12,5.38c-1.07.24-2-.2-2.14-1s.66-1.62,1.73-1.85c0,0,7.32-1.62,9.73-4S457.8,373.83,457.8,373.83Z"/><path class="cls-4" d="M474.84,380.43a1.81,1.81,0,0,1-1.51-2v-9.38a1.57,1.57,0,1,1,3,0v9.38A1.81,1.81,0,0,1,474.84,380.43ZM489,367.08a1.81,1.81,0,0,1,1.55,2v4c0,1.09-.11,2.87-.24,4,0,0-.86,6.95-3.07,9.49s-8.68,4.23-8.68,4.23a1.71,1.71,0,0,1-2.24-1,1.9,1.9,0,0,1,1.6-2s5.35-1.4,7-3.33,2.28-7.34,2.28-7.34c.13-1.09.23-2.87.23-4v-4.07A1.8,1.8,0,0,1,489,367.08Z"/><path class="cls-4" d="M503.24,389.13a1.59,1.59,0,1,1,0-3.09h18.11a1.59,1.59,0,1,1,0,3.09Zm1.93-17.61a1.59,1.59,0,1,1,0-3.09h14.25a1.59,1.59,0,1,1,0,3.09Z"/><path class="cls-4" d="M534.09,375.54c-.27-1.06.11-2.07.83-2.24s1.53.55,1.8,1.61l1,4.13c.26,1.06-.14,2.07-.87,2.24s-1.55-.55-1.79-1.62Zm14.64-1.29c.06-1.09.73-1.95,1.49-1.91s1.28,1,1.15,2.05c0,0-1,8.57-3.12,11.3s-8.86,4.54-8.86,4.54c-1.06.28-2-.1-2.2-.86s.6-1.56,1.67-1.77a21.63,21.63,0,0,0,3.65-1.08,9.28,9.28,0,0,0,3.6-2.81,11.37,11.37,0,0,0,2-4.56A40.58,40.58,0,0,0,548.73,374.25Zm-8.65.48c-.27-1.06.12-2.07.85-2.24s1.56.55,1.82,1.61l1.06,4.39c.25,1.07-.15,2.08-.89,2.25s-1.54-.55-1.78-1.62Z"/><path class="cls-4" d="M579.24,373.83a1.61,1.61,0,0,0-1.64-1.95h-6.05a3.41,3.41,0,0,0-2.82,1.79l-3.43,5.53c-.67.85-1.68,1.12-2.25.58a2,2,0,0,1,.23-2.52,23.39,23.39,0,0,0,2.73-4.32,25.23,25.23,0,0,0,1.53-5c.21-1.08,1-1.91,1.78-1.85s1.36.53,1.3,1,.59,1.88,1.68,1.88h8.39c1.1,0,2,.13,2,.3s-.11,1.18-.24,2.27c0,0-1.22,9.91-4.14,13.21s-12,5.38-12,5.38c-1.07.24-2-.2-2.14-1s.66-1.62,1.73-1.85c0,0,7.32-1.62,9.74-4S579.24,373.83,579.24,373.83Z"/><path class="cls-4" d="M325.85,405.58a3.91,3.91,0,0,1-.92,2.76,3.17,3.17,0,0,1-2.45,1,3.09,3.09,0,0,1-2.42-1,4,4,0,0,1-.89-2.76v-2.74a4,4,0,0,1,.9-2.76,3.1,3.1,0,0,1,2.41-1,3.2,3.2,0,0,1,2.45,1,4,4,0,0,1,.92,2.76Zm-1.38-2.76a3.23,3.23,0,0,0-.52-2,1.75,1.75,0,0,0-1.47-.67,1.67,1.67,0,0,0-1.44.67,3.31,3.31,0,0,0-.5,2v2.76a3.36,3.36,0,0,0,.5,2,1.7,1.7,0,0,0,1.44.67,1.74,1.74,0,0,0,1.47-.67,3.26,3.26,0,0,0,.52-2Z"/><path class="cls-4" d="M335.83,404.72h-.95v4.46H333.5v-9.95h1.38v4.37h.83l2.63-4.37H340L336.87,404l3.37,5.23h-1.7Z"/><path class="cls-4" d="M353.46,399.23v6.9a3.08,3.08,0,0,1-.88,2.37,3.25,3.25,0,0,1-2.31.82,3.17,3.17,0,0,1-2.28-.82,3.11,3.11,0,0,1-.87-2.37v-6.9h1.37v6.9a2.34,2.34,0,0,0,.48,1.6,1.65,1.65,0,0,0,1.3.54,1.73,1.73,0,0,0,1.33-.52,2.32,2.32,0,0,0,.48-1.62v-6.9Z"/><path class="cls-4" d="M363,399.23l2.33,8.12h0l2.33-8.12h1.79v9.95h-1.38v-3.82l.13-3.83h0l-2.4,7.65h-.91l-2.39-7.65h0l.13,3.82v3.82h-1.37v-9.95Z"/><path class="cls-4" d="M383.8,405.58a3.91,3.91,0,0,1-.91,2.76,3.18,3.18,0,0,1-2.46,1,3.09,3.09,0,0,1-2.41-1,4,4,0,0,1-.9-2.76v-2.74a4,4,0,0,1,.9-2.76,3.11,3.11,0,0,1,2.41-1,3.19,3.19,0,0,1,2.45,1,3.9,3.9,0,0,1,.92,2.76Zm-1.38-2.76a3.17,3.17,0,0,0-.52-2,1.73,1.73,0,0,0-1.47-.67,1.66,1.66,0,0,0-1.43.67,3.24,3.24,0,0,0-.5,2v2.76a3.36,3.36,0,0,0,.5,2,1.68,1.68,0,0,0,1.43.67,1.76,1.76,0,0,0,1.48-.67,3.26,3.26,0,0,0,.51-2Z"/><path class="cls-4" d="M397,400.28h-2.56v8.9h-1.38v-8.9h-2.55v-1H397Z"/><path class="cls-4" d="M410.43,405.58a3.91,3.91,0,0,1-.92,2.76,3.17,3.17,0,0,1-2.45,1,3.07,3.07,0,0,1-2.41-1,4,4,0,0,1-.9-2.76v-2.74a4,4,0,0,1,.9-2.76,3.1,3.1,0,0,1,2.41-1,3.19,3.19,0,0,1,2.45,1,4,4,0,0,1,.92,2.76Zm-1.38-2.76a3.17,3.17,0,0,0-.52-2,1.75,1.75,0,0,0-1.47-.67,1.7,1.7,0,0,0-1.44.67,3.31,3.31,0,0,0-.5,2v2.76a3.28,3.28,0,0,0,.51,2,1.66,1.66,0,0,0,1.43.67,1.73,1.73,0,0,0,1.47-.67,3.19,3.19,0,0,0,.52-2Z"/><path class="cls-4" d="M427.19,409.18v-9.95h2.73a3.24,3.24,0,0,1,2.59,1.19,4.69,4.69,0,0,1,1,3.08v1.42a4.64,4.64,0,0,1-1,3.07,3.24,3.24,0,0,1-2.59,1.19Zm1.38-8.9v7.85h1.3a1.88,1.88,0,0,0,1.65-.9,4,4,0,0,0,.61-2.32v-1.43a4,4,0,0,0-.61-2.31,1.89,1.89,0,0,0-1.65-.89Z"/><path class="cls-4" d="M446.21,404.55h-3.69v3.58h4.28v1.05h-5.67v-9.95h5.63v1h-4.24v3.22h3.69Z"/><path class="cls-4" d="M460.73,409.18h-1.38l-3.77-7.4h-.05v7.39h-1.38v-9.95h1.38l3.78,7.38h0v-7.37h1.38Z"/><path class="cls-4" d="M474.29,400.28h-2.55v8.9h-1.39v-8.9h-2.54v-1h6.48Z"/><path class="cls-4" d="M485.53,406.67h-3.17l-.73,2.51h-1.4l3.06-9.95h1.34l3,9.95h-1.4Zm-2.85-1.1h2.54L484,401.22h0Z"/><path class="cls-4" d="M496.22,408.13h3.89v1.05h-5.28v-9.95h1.39Z"/><path class="cls-4" d="M522.38,406.16l0,0a3.24,3.24,0,0,1-.8,2.31,2.94,2.94,0,0,1-2.22.81,3,3,0,0,1-2.34-1,4,4,0,0,1-.87-2.75v-2.76a4.08,4.08,0,0,1,.86-2.75,2.93,2.93,0,0,1,2.31-1,3,3,0,0,1,2.25.8,3.34,3.34,0,0,1,.81,2.34l0,0h-1.31a2.6,2.6,0,0,0-.43-1.61,1.55,1.55,0,0,0-1.29-.51,1.53,1.53,0,0,0-1.33.69,3.52,3.52,0,0,0-.47,2v2.79a3.46,3.46,0,0,0,.48,2,1.58,1.58,0,0,0,1.36.69,1.54,1.54,0,0,0,1.26-.5,2.63,2.63,0,0,0,.42-1.61Z"/><path class="cls-4" d="M531.35,408.13h3.89v1.05H530v-9.95h1.38Z"/><path class="cls-4" d="M544,409.18h-1.38v-9.95H544Z"/><path class="cls-4" d="M558.67,409.18h-1.38l-3.77-7.4h0v7.39h-1.38v-9.95h1.38l3.78,7.38h0v-7.37h1.38Z"/><path class="cls-4" d="M568.15,409.18h-1.39v-9.95h1.39Z"/><path class="cls-4" d="M582.12,406.16l0,0a3.28,3.28,0,0,1-.79,2.31,3,3,0,0,1-2.23.81,2.94,2.94,0,0,1-2.33-1,4,4,0,0,1-.88-2.75v-2.76a4,4,0,0,1,.87-2.75,2.9,2.9,0,0,1,2.3-1,3,3,0,0,1,2.25.8,3.3,3.3,0,0,1,.81,2.34l0,0h-1.31a2.67,2.67,0,0,0-.44-1.61,1.55,1.55,0,0,0-1.29-.51,1.5,1.5,0,0,0-1.32.69,3.44,3.44,0,0,0-.47,2v2.79a3.46,3.46,0,0,0,.48,2,1.75,1.75,0,0,0,2.62.19,2.71,2.71,0,0,0,.41-1.61Z"/></svg>